<svg width="216" height="207" viewBox="0 0 216 207" fill="none" xmlns="http://www.w3.org/2000/svg">
<path fill-rule="evenodd" clip-rule="evenodd" d="M108.341 0.110679C135.816 0.827689 163.489 6.51803 183.573 25.4192C204.295 44.9199 215.394 72.6447 215.769 101.209C216.149 130.158 206.203 158.856 185.589 179.029C165.241 198.942 136.708 206.598 108.341 206.337C80.2636 206.078 52.6922 197.265 32.4925 177.618C11.9472 157.635 0.87876 129.972 0.255373 101.209C-0.382451 71.7796 7.69335 41.4171 29.1064 21.3882C49.9298 1.91103 79.935 -0.630598 108.341 0.110679Z" fill="#EDF2FF"/>
<path fill-rule="evenodd" clip-rule="evenodd" d="M92.2234 112.085C106.126 114.068 128.832 111.773 134.22 108.719C141.136 104.8 142.53 48.1714 133.506 44.6402C127.028 42.1056 105.105 40.5938 91.2175 42.6406C89.6239 70.0014 89.8712 87.0387 92.2234 112.085ZM88.0402 43.2036C86.5527 69.2894 86.7985 87.4046 88.9496 111.499C86.4966 110.955 84.4834 110.228 83.1194 109.289C74.3735 103.27 74.501 54.1556 79.9896 46.8594C81.2224 45.2207 84.1457 44.028 88.0402 43.2036ZM121.659 79.1836C115.038 78.3416 110.921 78.5338 102.852 79.4867C102.171 79.5671 101.554 79.0803 101.473 78.3993C101.393 77.7183 101.88 77.101 102.561 77.0206C110.735 76.0553 115.074 75.8429 121.972 76.7202C122.652 76.8068 123.133 77.4284 123.047 78.1086C122.96 78.7889 122.339 79.2702 121.659 79.1836ZM103.186 85.5833C111.743 84.4463 115.86 84.3464 121.944 85.2781C122.621 85.3819 123.255 84.9165 123.359 84.2387C123.463 83.5609 122.997 82.9272 122.32 82.8234C115.921 81.8435 111.549 81.967 102.859 83.1217C102.179 83.212 101.701 83.8363 101.792 84.516C101.882 85.1958 102.506 85.6736 103.186 85.5833Z" fill="#1D346B"/>
<path d="M105.822 68.4754C105.822 68.4754 108.441 72.2791 110.249 71.8426C112.057 71.4061 118.043 64.4224 118.043 64.4224" stroke="#EDF2FF" stroke-width="2.48324" stroke-linecap="round"/>
<path d="M62.9517 145.915C62.9517 145.965 62.9269 146.312 62.8772 146.958H52.7704C52.9526 147.786 53.383 148.44 54.0617 148.92C54.7405 149.4 55.5848 149.64 56.5946 149.64C57.2899 149.64 57.9025 149.541 58.4322 149.342C58.9785 149.127 59.4835 148.796 59.947 148.349L62.0081 150.584C60.7499 152.024 58.9123 152.744 56.4953 152.744C54.9888 152.744 53.6561 152.454 52.4973 151.875C51.3384 151.279 50.4445 150.459 49.8154 149.416C49.1863 148.373 48.8718 147.19 48.8718 145.865C48.8718 144.558 49.178 143.382 49.7906 142.339C50.4196 141.28 51.2722 140.46 52.3483 139.881C53.4409 139.285 54.6577 138.987 55.9987 138.987C57.3065 138.987 58.4902 139.268 59.5497 139.831C60.6092 140.394 61.4369 141.205 62.0329 142.265C62.6455 143.308 62.9517 144.524 62.9517 145.915ZM56.0235 141.917C55.1461 141.917 54.4094 142.165 53.8134 142.662C53.2174 143.159 52.8532 143.837 52.7208 144.698H59.3014C59.1689 143.854 58.8047 143.183 58.2087 142.687C57.6128 142.174 56.8843 141.917 56.0235 141.917Z" fill="#27448C"/>
<path d="M79.3717 134.12V152.545H75.6717V151.006C74.7115 152.165 73.3209 152.744 71.4999 152.744C70.2417 152.744 69.0994 152.462 68.073 151.9C67.0632 151.337 66.2685 150.534 65.6891 149.491C65.1097 148.448 64.82 147.239 64.82 145.865C64.82 144.491 65.1097 143.283 65.6891 142.24C66.2685 141.197 67.0632 140.394 68.073 139.831C69.0994 139.268 70.2417 138.987 71.4999 138.987C73.205 138.987 74.5377 139.525 75.4979 140.601V134.12H79.3717ZM72.1703 149.565C73.1471 149.565 73.9583 149.234 74.6039 148.572C75.2496 147.893 75.5724 146.991 75.5724 145.865C75.5724 144.74 75.2496 143.846 74.6039 143.183C73.9583 142.505 73.1471 142.165 72.1703 142.165C71.1771 142.165 70.3576 142.505 69.7119 143.183C69.0663 143.846 68.7435 144.74 68.7435 145.865C68.7435 146.991 69.0663 147.893 69.7119 148.572C70.3576 149.234 71.1771 149.565 72.1703 149.565Z" fill="#27448C"/>
<path d="M96.6491 139.185V152.545H92.9739V150.956C92.4607 151.535 91.8481 151.982 91.1363 152.297C90.4244 152.595 89.6546 152.744 88.8269 152.744C87.072 152.744 85.6814 152.239 84.655 151.229C83.6286 150.219 83.1154 148.721 83.1154 146.734V139.185H86.9893V146.163C86.9893 148.315 87.8915 149.392 89.696 149.392C90.6231 149.392 91.368 149.094 91.9309 148.498C92.4938 147.885 92.7752 146.983 92.7752 145.791V139.185H96.6491Z" fill="#27448C"/>
<path d="M108.591 138.987C110.246 138.987 111.579 139.483 112.589 140.477C113.615 141.47 114.129 142.943 114.129 144.897V152.545H110.255V145.493C110.255 144.433 110.023 143.647 109.559 143.134C109.096 142.604 108.425 142.339 107.548 142.339C106.571 142.339 105.793 142.645 105.214 143.258C104.634 143.854 104.345 144.748 104.345 145.94V152.545H100.471V134.12H104.345V140.576C104.858 140.063 105.479 139.674 106.207 139.409C106.935 139.128 107.73 138.987 108.591 138.987Z" fill="#27448C"/>
<path d="M123.261 138.987C125.331 138.987 126.92 139.483 128.029 140.477C129.138 141.453 129.693 142.935 129.693 144.922V152.545H126.067V150.882C125.339 152.123 123.982 152.744 121.995 152.744C120.969 152.744 120.075 152.57 119.313 152.222C118.568 151.875 117.997 151.395 117.6 150.782C117.202 150.17 117.004 149.474 117.004 148.696C117.004 147.455 117.467 146.478 118.394 145.766C119.338 145.054 120.786 144.698 122.74 144.698H125.819C125.819 143.854 125.563 143.208 125.049 142.761C124.536 142.298 123.766 142.066 122.74 142.066C122.028 142.066 121.324 142.182 120.629 142.414C119.95 142.629 119.371 142.927 118.891 143.308L117.5 140.601C118.229 140.088 119.098 139.69 120.108 139.409C121.134 139.128 122.185 138.987 123.261 138.987ZM122.963 150.137C123.626 150.137 124.213 149.988 124.727 149.69C125.24 149.375 125.604 148.92 125.819 148.324V146.958H123.162C121.573 146.958 120.778 147.479 120.778 148.522C120.778 149.019 120.969 149.416 121.349 149.714C121.747 149.996 122.285 150.137 122.963 150.137Z" fill="#27448C"/>
<path d="M141.329 138.987C142.57 138.987 143.696 139.277 144.706 139.856C145.732 140.419 146.535 141.222 147.114 142.265C147.694 143.291 147.984 144.491 147.984 145.865C147.984 147.239 147.694 148.448 147.114 149.491C146.535 150.517 145.732 151.32 144.706 151.9C143.696 152.462 142.57 152.744 141.329 152.744C139.491 152.744 138.092 152.165 137.132 151.006V152.545H133.432V134.12H137.306V140.601C138.282 139.525 139.623 138.987 141.329 138.987ZM140.658 149.565C141.651 149.565 142.463 149.234 143.092 148.572C143.737 147.893 144.06 146.991 144.06 145.865C144.06 144.74 143.737 143.846 143.092 143.183C142.463 142.505 141.651 142.165 140.658 142.165C139.665 142.165 138.845 142.505 138.2 143.183C137.571 143.846 137.256 144.74 137.256 145.865C137.256 146.991 137.571 147.893 138.2 148.572C138.845 149.234 139.665 149.565 140.658 149.565Z" fill="#27448C"/>
<path d="M150.81 141.122C150.81 140.053 151.677 139.185 152.747 139.185V139.185C153.816 139.185 154.683 140.053 154.683 141.122V150.608C154.683 151.678 153.816 152.545 152.747 152.545V152.545C151.677 152.545 150.81 151.678 150.81 150.608V141.122ZM152.747 137.323C152.035 137.323 151.455 137.116 151.008 136.702C150.561 136.288 150.338 135.775 150.338 135.163C150.338 134.55 150.561 134.037 151.008 133.623C151.455 133.209 152.035 133.002 152.747 133.002C153.458 133.002 154.038 133.201 154.485 133.598C154.932 133.995 155.155 134.492 155.155 135.088C155.155 135.734 154.932 136.272 154.485 136.702C154.038 137.116 153.458 137.323 152.747 137.323Z" fill="#27448C"/>
<path d="M167.128 151.9C166.748 152.181 166.276 152.396 165.713 152.545C165.167 152.678 164.587 152.744 163.975 152.744C162.385 152.744 161.152 152.338 160.275 151.527C159.414 150.716 158.983 149.524 158.983 147.951V142.463H156.922V139.483H158.983V136.23H162.857V139.483H166.185V142.463H162.857V147.902C162.857 148.464 162.998 148.903 163.279 149.218C163.577 149.516 163.991 149.665 164.521 149.665C165.134 149.665 165.655 149.499 166.085 149.168L167.128 151.9Z" fill="#27448C"/>
</svg>
